HIERARCHY
ROOT Hips
{
	OFFSET 0.00 0.00 0.00
	CHANNELS 6 Xposition Yposition Zposition Xrotation Yrotation Zrotation
	JOINT LeftUpLeg
	{
		OFFSET 3.64953 0.00000 0.00000
		CHANNELS 3 Xrotation Yrotation Zrotation
		JOINT LeftLeg
		{
			OFFSET 0.00000 -15.70580 0.00000
			CHANNELS 3 Xrotation Yrotation Zrotation
			JOINT LeftFoot
			{
				OFFSET 0.00000 -15.41867 0.00000
				CHANNELS 3 Xrotation Yrotation Zrotation
				JOINT LeftToeBase
				{
					OFFSET 0.00000 -1.53543 5.73033
					CHANNELS 3 Xrotation Yrotation Zrotation
					End Site
					{
						OFFSET 0.00000 0.00000 2.95275
					}
				}
			}
		}
	}
	JOINT RightUpLeg
	{
		OFFSET -3.64953 0.00000 0.00000
		CHANNELS 3 Xrotation Yrotation Zrotation
		JOINT RightLeg
		{
			OFFSET 0.00000 -15.70580 0.00000
			CHANNELS 3 Xrotation Yrotation Zrotation
			JOINT RightFoot
			{
				OFFSET 0.00000 -15.41867 0.00000
				CHANNELS 3 Xrotation Yrotation Zrotation
				JOINT RightToeBase
				{
					OFFSET 0.00000 -1.53543 5.73033
					CHANNELS 3 Xrotation Yrotation Zrotation
					End Site
					{
						OFFSET 0.00000 0.00000 2.95275
					}
				}
			}
		}
	}
	JOINT Spine
	{
		OFFSET 0.00000 0.03937 0.00000
		CHANNELS 3 Xrotation Yrotation Zrotation
		JOINT Spine1
		{
			OFFSET 0.00000 10.24829 0.00000
			CHANNELS 3 Xrotation Yrotation Zrotation
			JOINT Neck
			{
				OFFSET 0.00000 7.82687 0.00000
				CHANNELS 3 Xrotation Yrotation Zrotation
				JOINT Head
				{
					OFFSET 0.00000 6.90715 0.00000
					CHANNELS 3 Xrotation Yrotation Zrotation
					End Site
					{
						OFFSET 0.00000 4.52755 0.00000
					}
				}
			}
			JOINT LeftShoulder
			{
				OFFSET 0.00000 7.82687 0.00000
				CHANNELS 3 Xrotation Yrotation Zrotation
				JOINT LeftArm
				{
					OFFSET 6.71018 -0.00002 0.00000
					CHANNELS 3 Xrotation Yrotation Zrotation
					JOINT LeftForeArm
					{
						OFFSET 10.94419 -0.00004 0.00000
						CHANNELS 3 Xrotation Yrotation Zrotation
						JOINT LeftHand
						{
							OFFSET 8.52010 -0.00003 0.00000
							CHANNELS 3 Xrotation Yrotation Zrotation
							JOINT LeftHandThumb
							{
								OFFSET 0.00000 0.00000 0.00000
								CHANNELS 3 Xrotation Yrotation Zrotation
								End Site
								{
									OFFSET 0.00000 0.00000 3.93700
								}
							}
							JOINT L_Wrist_End
							{
								OFFSET 3.93700 -0.00001 0.00000
								CHANNELS 3 Xrotation Yrotation Zrotation
							}
						}
					}
				}
			}
			JOINT RightShoulder
			{
				OFFSET 0.00000 7.82687 0.00000
				CHANNELS 3 Xrotation Yrotation Zrotation
				JOINT RightArm
				{
					OFFSET -6.71018 -0.00002 0.00000
					CHANNELS 3 Xrotation Yrotation Zrotation
					JOINT RightForeArm
					{
						OFFSET -10.94419 -0.00004 0.00000
						CHANNELS 3 Xrotation Yrotation Zrotation
						JOINT RightHand
						{
							OFFSET -8.52010 -0.00003 0.00000
							CHANNELS 3 Xrotation Yrotation Zrotation
							JOINT RightHandThumb
							{
								OFFSET 0.00000 0.00000 0.00000
								CHANNELS 3 Xrotation Yrotation Zrotation
								End Site
								{
									OFFSET 0.00000 0.00000 3.93700
								}
							}
							JOINT R_Wrist_End
							{
								OFFSET -5.39369 -0.00002 0.00000
								CHANNELS 3 Xrotation Yrotation Zrotation
							}
						}
					}
				}
			}
		}
	}
}
MOTION
Frames: 6
Frame Time: 0.008333
 5.1427 32.5308 -24.4088 175.4297 -84.6676 177.0380 5.1641 0.0637 -1.4733 6.4424 0.0000 -0.0000 -16.9560 -10.0679 -4.6103 6.7406 -0.0000 0.0000 -28.0066 -1.4743 -4.3211 48.3675 -0.0000 0.0000 -17.5855 0.1341 -2.1360 1.7613 0.0000 -0.0000 -3.5592 1.4173 -1.2928 11.0662 -0.2455 -0.0881 2.6553 3.6753 -6.2616 -0.3494 -0.7262 6.4546 19.9245 11.7831 -5.5731 -19.4988 -44.0702 -67.9855 -0.0001 -20.1660 -0.0000 -8.4736 -0.3615 -13.6991 -0.0000 0.0000 0.0000 -0.0000 0.0000 0.0000 15.1977 -18.6264 5.0436 -4.8805 40.8794 75.0516 -0.0001 18.8500 0.0000 -25.0333 -4.3253 11.7048 0.0000 -0.0000 -0.0000 0.0000 -0.0000 -0.0000
 4.8808 32.5046 -24.4510 174.9970 -84.6541 176.5895 5.6218 0.0297 -1.4365 6.4262 0.0000 -0.0000 -17.2901 -9.9709 -4.5624 6.6165 0.0000 0.0000 -27.9866 -1.2850 -4.2945 45.3517 0.0000 0.0000 -17.1192 0.1951 -1.9741 1.5603 -0.0000 -0.0000 -3.4722 1.3513 -1.2767 10.9265 -0.3082 -0.0704 2.5597 3.7264 -6.2132 -0.7205 -0.6469 6.4098 19.9168 11.6404 -5.5711 -19.3301 -43.9303 -67.4420 -0.0001 -20.8252 -0.0000 -8.3081 -0.2366 -13.5300 0.0000 0.0000 -0.0000 0.0000 0.0000 -0.0000 15.2952 -18.5362 5.0690 -4.5218 41.0606 74.9767 -0.0001 18.7719 0.0000 -25.0060 -4.3552 11.5977 -0.0000 0.0000 -0.0000 -0.0000 0.0000 -0.0000
 4.6214 32.4748 -24.5109 173.0126 -84.6776 174.3680 5.8776 0.0375 -1.1273 6.5281 0.0000 0.0000 -17.7538 -9.9457 -4.6634 6.3321 0.0000 0.0000 -27.9726 -1.2656 -4.0566 42.0508 -0.0000 0.0000 -16.4097 0.2097 -1.6790 1.6730 -0.0000 -0.0000 -3.6199 1.3072 -1.1490 11.0366 -0.3246 0.1288 2.3337 3.5570 -6.2180 -1.2426 -0.4799 6.3213 20.0530 11.6689 -5.7305 -19.5875 -44.4560 -66.9231 -0.0001 -21.0430 -0.0000 -8.3474 -0.4246 -13.4586 0.0000 0.0000 -0.0000 0.0000 0.0000 -0.0000 15.1219 -18.6530 4.9995 -4.1907 41.1527 75.0093 -0.0001 18.7112 0.0000 -24.8054 -4.5402 11.6648 -0.0000 -0.0000 0.0000 -0.0000 -0.0000 0.0000
 4.3511 32.4420 -24.5548 172.5880 -84.6755 173.9386 6.3033 -0.0485 -1.1039 6.5940 -0.0000 0.0000 -18.0960 -9.8274 -4.4252 6.0131 -0.0000 -0.0000 -27.7404 -1.2695 -4.1183 38.4299 -0.0000 0.0000 -15.5232 0.4279 -1.4872 1.9751 -0.0000 0.0000 -3.5473 1.2543 -1.1442 10.8955 -0.3715 0.1549 2.2793 3.5552 -6.1850 -1.7404 -0.4363 6.3038 19.8923 11.5727 -5.6268 -19.3543 -44.4268 -66.5231 -0.0001 -21.5317 -0.0000 -8.1971 -0.3537 -13.3443 -0.0000 -0.0000 -0.0000 -0.0000 -0.0000 -0.0000 15.3083 -18.5965 5.0467 -3.9317 41.3466 74.9071 -0.0001 18.6110 0.0000 -24.7056 -4.5418 11.7657 0.0000 -0.0000 -0.0000 0.0000 -0.0000 -0.0000
 4.0787 32.4094 -24.5956 172.0031 -84.6758 173.3296 6.6620 -0.2169 -1.0790 6.7770 0.0000 -0.0000 -18.4658 -9.6241 -4.2446 5.8217 -0.0000 0.0000 -27.4240 -1.2220 -4.1789 34.7706 0.0000 0.0000 -14.3068 0.7043 -0.7345 1.9838 0.0000 0.0000 -3.5516 1.2249 -1.0914 10.8920 -0.3961 0.1949 2.2301 3.4924 -6.2414 -2.4311 -0.4135 6.3418 19.9281 11.3932 -5.6737 -19.2855 -44.4755 -65.9763 -0.0001 -21.9975 -0.0000 -9.1746 -0.4382 -13.3593 -0.0000 0.0000 -0.0000 -0.0000 0.0000 -0.0000 15.3787 -18.5805 5.0780 -3.6362 41.5263 74.7793 -0.0001 18.5782 0.0000 -24.7083 -4.7074 11.7127 -0.0000 0.0000 -0.0000 -0.0000 0.0000 -0.0000
 3.8053 32.3711 -24.6497 170.5479 -84.7002 171.7597 6.9457 -0.3057 -0.9181 6.9645 -0.0000 0.0000 -18.9106 -9.5175 -4.1559 5.6594 0.0000 0.0000 -27.0686 -1.2373 -4.1460 30.9113 0.0000 0.0000 -12.8927 1.0463 0.1334 2.3078 0.0000 -0.0000 -3.7181 1.2118 -1.0053 11.1201 -0.3964 0.3018 1.8532 3.4134 -6.2324 -2.8420 -0.3977 6.2604 19.9281 11.4127 -5.7390 -19.4262 -45.0688 -65.4914 -0.0001 -22.1516 -0.0000 -9.0059 -0.5151 -13.3398 0.0000 -0.0000 -0.0000 0.0000 -0.0000 -0.0000 15.1388 -18.7190 4.9706 -3.3705 41.6972 74.8547 -0.0001 18.4114 0.0000 -24.2952 -4.6905 11.8224 -0.0000 0.0000 0.0000 -0.0000 0.0000 0.0000
